#!OML:ASF X:\für Bonn\!DataBase\2005_08_12_Daniel\c3d\Daniel.ASF
:FULLY-SPECIFIED
:DEGREES
1660
root 23.7714 17.4546 -35.7308 -356.756 -34.1156 -365.067
lowerback 12.7715 -1.80051 0.762285
upperback 4.29837 -2.35506 -0.268249
thorax -2.68783 -1.19247 -0.358143
lowerneck 1.04704 0.600885 -8.37468
upperneck 12.8714 0.741962 1.64716
head 4.03226 -0.0109229 2.05698
rclavicle 4.17448e-015 1.59028e-014
rhumerus -42.6532 -40.7643 -57.5028
rradius 5.87145
rwrist 51.3794
rhand -20.9453 9.51985
rfingers 7.12502
rthumb 5.42712 -20.3907
lclavicle 4.17448e-015 1.59028e-014
lhumerus -25.9669 36.2768 71.8211
lradius 18.8645
lwrist -30.0404
lhand -16.3439 -7.25394
lfingers 7.12502
lthumb 9.86837 22.4948
rfemur -25.3434 6.67571 25.4139
rtibia 43.8967
rfoot -14.995 5.39784
rtoes -12.6206
lfemur -1.3511 -8.4213 -23.9126
ltibia 35.5731
lfoot -34.736 9.70356
ltoes -0.503998
1661
root 23.7561 17.4599 -35.6759 -356.607 -34.1892 -365.236
lowerback 12.7602 -1.90779 0.986234
upperback 4.33968 -2.46938 -0.246447
thorax -2.64812 -1.24881 -0.445489
lowerneck 0.973067 0.640306 -8.31558
upperneck 12.9235 0.786772 1.76994
head 4.06229 0.017268 2.09145
rclavicle 9.70069e-014 -2.70347e-014
rhumerus -42.9779 -40.7829 -57.4235
rradius 5.7856
rwrist 50.9068
rhand -20.9113 9.85841
rfingers 7.12502
rthumb 5.45999 -20.0512
lclavicle 9.70069e-014 -2.70347e-014
lhumerus -25.6494 36.1945 72.4177
lradius 18.8083
lwrist -30.4137
lhand -16.2464 -7.08192
lfingers 7.12502
lthumb 9.9624 22.6623
rfemur -25.6491 6.82192 25.4451
rtibia 43.3796
rfoot -14.8563 5.46229
rtoes -11.4549
lfemur -0.9835 -8.48974 -23.9036
ltibia 35.2141
lfoot -34.7713 9.92501
ltoes -0.547091
1662
root 23.7386 17.4647 -35.619 -356.47 -34.2774 -365.425
lowerback 12.7911 -2.0199 1.19966
upperback 4.37484 -2.59005 -0.197922
thorax -2.63684 -1.30847 -0.496564
lowerneck 0.946529 0.697858 -8.308
upperneck 12.9311 0.852836 1.88717
head 4.06623 0.0544227 2.13284
rclavicle 5.04913e-014 -2.38542e-015
rhumerus -43.3394 -40.7211 -57.2983
rradius 5.79931
rwrist 50.4554
rhand -20.775 10.2336
rfingers 7.12502
rthumb 5.59155 -19.6726
lclavicle 5.04913e-014 -2.38542e-015
lhumerus -25.4115 36.2677 72.9519
lradius 18.752
lwrist -30.8816
lhand -16.0797 -6.94313
lfingers 7.12502
lthumb 10.1232 22.7933
rfemur -25.9185 6.98256 25.4924
rtibia 42.7146
rfoot -14.6855 5.48288
rtoes -10.3875
lfemur -0.542198 -8.57754 -23.8936
ltibia 34.7954
lfoot -34.8379 10.1461
ltoes -0.604271
1663
root 23.7199 17.4716 -35.5613 -356.307 -34.3439 -365.618
lowerback 12.8127 -2.13963 1.40701
upperback 4.40737 -2.72126 -0.141814
thorax -2.62342 -1.37332 -0.534922
lowerneck 0.898649 0.763218 -8.28634
upperneck 12.9485 0.934516 1.9713
head 4.07669 0.0983745 2.1611
rclavicle -8.70677e-014 1.98785e-014
rhumerus -43.7454 -40.6526 -57.182
rradius 5.90267
rwrist 50.0237
rhand -20.5931 10.5902
rfingers 7.12502
rthumb 5.76716 -19.3113
lclavicle -8.70677e-014 1.98785e-014
lhumerus -25.1615 36.2473 73.5077
lradius 18.6877
lwrist -31.2403
lhand -15.9486 -6.81839
lfingers 7.12502
lthumb 10.2497 22.9119
rfemur -26.2056 7.13393 25.558
rtibia 41.9183
rfoot -14.509 5.29958
rtoes -10.0273
lfemur -0.113004 -8.59975 -23.839
ltibia 34.3472
lfoot -34.8681 10.2882
ltoes -0.583827
1664
root 23.6998 17.4785 -35.5017 -356.164 -34.4254 -365.809
lowerback 12.8603 -2.24857 1.62405
upperback 4.43637 -2.83716 -0.104813
thorax -2.62938 -1.43049 -0.599614
lowerneck 0.897221 0.823857 -8.27134
upperneck 12.954 0.999884 2.10804
head 4.07484 0.136328 2.20757
rclavicle -1.74931e-014 5.56597e-015
rhumerus -44.2689 -40.5706 -57.0051
rradius 6.09419
rwrist 49.649
rhand -20.3215 10.9601
rfingers 7.12502
rthumb 6.02941 -18.9341
lclavicle -1.74931e-014 5.56597e-015
lhumerus -24.9354 36.171 74.0225
lradius 18.6213
lwrist -31.5727
lhand -15.8189 -6.70684
lfingers 7.12502
lthumb 10.3749 23.0172
rfemur -26.4364 7.33523 25.6105
rtibia 41.0019
rfoot -14.2953 5.03286
rtoes -9.45057
lfemur 0.367754 -8.621 -23.8015
ltibia 33.8566
lfoot -34.8805 10.4714
ltoes -0.70345
1665
root 23.6776 17.4857 -35.4413 -355.981 -34.5033 -366.019
lowerback 12.883 -2.36381 1.8193
upperback 4.46498 -2.96361 -0.0450383
thorax -2.62086 -1.49298 -0.62764
lowerneck 0.859396 0.884331 -8.22286
upperneck 12.9779 1.07414 2.18179
head 4.08577 0.177257 2.22715
rclavicle 1.86858e-014 2.38542e-015
rhumerus -44.8278 -40.4302 -56.8084
rradius 6.40802
rwrist 49.3717
rhand -19.9779 11.2569
rfingers 7.12502
rthumb 6.36111 -18.6276
lclavicle 1.86858e-014 2.38542e-015
lhumerus -24.6899 36.0274 74.562
lradius 18.5534
lwrist -31.7802
lhand -15.7185 -6.60157
lfingers 7.12502
lthumb 10.4717 23.1176
rfemur -26.6679 7.6068 25.6652
rtibia 39.9889
rfoot -14.0741 4.66903
rtoes -8.8933
lfemur 0.837327 -8.56676 -23.7123
ltibia 33.3351
lfoot -34.9328 10.5879
ltoes -0.979999
1666
root 23.6553 17.4925 -35.3796 -355.829 -34.5985 -366.21
lowerback 12.9255 -2.45615 2.01493
upperback 4.50804 -3.06053 -0.0078943
thorax -2.60887 -1.54068 -0.683275
lowerneck 0.824952 0.933205 -8.13947
upperneck 12.9823 1.12903 2.28159
head 4.08995 0.212146 2.24851
rclavicle -5.12864e-014 3.49861e-014
rhumerus -45.4649 -40.3357 -56.5755
rradius 6.7893
rwrist 49.2084
rhand -19.6152 11.5534
rfingers 7.12502
rthumb 6.71125 -18.3203
lclavicle -5.12864e-014 3.49861e-014
lhumerus -24.4037 35.8256 75.1205
lradius 18.467
lwrist -31.9728
lhand -15.6142 -6.5284
lfingers 7.12502
lthumb 10.5723 23.1857
rfemur -26.8583 7.85229 25.6978
rtibia 38.9042
rfoot -13.8523 4.36173
rtoes -8.14506
lfemur 1.35262 -8.51367 -23.6553
ltibia 32.7863
lfoot -34.9409 10.7101
ltoes -1.11886
1667
root 23.6311 17.4998 -35.317 -355.694 -34.6955 -366.365
lowerback 12.9773 -2.55414 2.1479
upperback 4.5469 -3.17178 0.0422061
thorax -2.6032 -1.5958 -0.687494
lowerneck 0.754647 0.986524 -8.07245
upperneck 13.0261 1.19647 2.35137
head 4.11468 0.250134 2.26404
rclavicle 3.10104e-014 -2.70347e-014
rhumerus -46.0271 -40.2082 -56.3704
rradius 7.17248
rwrist 49.1856
rhand -19.203 11.7112
rfingers 7.12502
rthumb 7.10917 -18.1494
lclavicle 3.10104e-014 -2.70347e-014
lhumerus -24.1748 35.8448 75.6131
lradius 18.354
lwrist -32.3287
lhand -15.5619 -6.51168
lfingers 7.12502
lthumb 10.6228 23.1998
rfemur -27.0438 8.12864 25.6963
rtibia 37.7773
rfoot -13.7195 3.9775
rtoes -7.70646
lfemur 1.87391 -8.42593 -23.611
ltibia 32.2172
lfoot -34.9957 10.7857
ltoes -1.35629
1668
root 23.6057 17.5048 -35.2545 -355.556 -34.8054 -366.541
lowerback 13.059 -2.64867 2.29598
upperback 4.57092 -3.27546 0.0868581
thorax -2.63034 -1.64728 -0.704998
lowerneck 0.752154 1.05484 -8.00877
upperneck 13.0265 1.27455 2.45087
head 4.10987 0.295361 2.28901
rclavicle -2.98177e-014 7.95139e-016
rhumerus -46.5624 -40.1185 -56.225
rradius 7.52376
rwrist 49.2834
rhand -18.8521 11.7479
rfingers 7.12502
rthumb 7.44793 -18.101
lclavicle -2.98177e-014 7.95139e-016
lhumerus -23.9608 35.7851 76.0986
lradius 18.2758
lwrist -32.6535
lhand -15.4766 -6.46321
lfingers 7.12502
lthumb 10.7051 23.2441
rfemur -27.2102 8.41847 25.712
rtibia 36.6263
rfoot -13.5734 3.51062
rtoes -7.43426
lfemur 2.41289 -8.25618 -23.5314
ltibia 31.6282
lfoot -35.0202 10.8449
ltoes -1.73848
1669
root 23.5792 17.5101 -35.1907 -355.406 -34.9231 -366.696
lowerback 13.0972 -2.73299 2.41588
upperback 4.60465 -3.3705 0.130761
thorax -2.62236 -1.69433 -0.710935
lowerneck 0.729202 1.11431 -7.88797
upperneck 13.0464 1.34708 2.49156
head 4.11613 0.337731 2.2836
rclavicle 4.87022e-014 7.95139e-015
rhumerus -47.0433 -40.0725 -56.1197
rradius 7.89692
rwrist 49.3972
rhand -18.4897 11.7143
rfingers 7.12502
rthumb 7.79768 -18.1219
lclavicle 4.87022e-014 7.95139e-015
lhumerus -23.712 35.8775 76.5512
lradius 18.1229
lwrist -33.1297
lhand -15.395 -6.52329
lfingers 7.12502
lthumb 10.7838 23.1799
rfemur -27.409 8.67952 25.7085
rtibia 35.4888
rfoot -13.3548 2.97328
rtoes -7.30544
lfemur 2.94449 -8.13117 -23.4788
ltibia 31.0238
lfoot -35.0581 10.9088
ltoes -2.01726
1670
root 23.5502 17.5142 -35.1255 -355.3 -35.041 -366.791
lowerback 13.1436 -2.81983 2.4774
upperback 4.642 -3.4763 0.16488
thorax -2.61287 -1.74688 -0.692323
lowerneck 0.65942 1.17707 -7.82707
upperneck 13.1043 1.42476 2.57888
head 4.14531 0.380871 2.30701
rclavicle -3.35946e-014 1.27222e-014
rhumerus -47.4283 -40.0511 -56.0841
rradius 8.18818
rwrist 49.6922
rhand -18.2483 11.6381
rfingers 7.12502
rthumb 8.03065 -18.1893
lclavicle -3.35946e-014 1.27222e-014
lhumerus -23.4773 35.9285 77.0084
lradius 18.024
lwrist -33.5991
lhand -15.3143 -6.55692
lfingers 7.12502
lthumb 10.8616 23.1422
rfemur -27.6367 8.9005 25.6782
rtibia 34.3659
rfoot -13.0976 2.16244
rtoes -7.93008
lfemur 3.49199 -7.98483 -23.4719
ltibia 30.4257
lfoot -35.114 10.9464
ltoes -2.26438
